<svg width="31" height="37" viewBox="0 0 31 37" fill="none" xmlns="http://www.w3.org/2000/svg">
<path d="M25.6916 19.6964C25.6494 15.1747 29.5265 12.9749 29.7038 12.8725C27.508 9.78183 24.1047 9.35955 22.9087 9.32588C20.0503 9.03547 17.2776 10.9771 15.8215 10.9771C14.3364 10.9771 12.0941 9.35394 9.67747 9.40164C6.56766 9.44794 3.65838 11.1862 2.06279 13.8854C-1.23013 19.3892 1.22575 27.4771 4.38062 31.9259C5.95877 34.1046 7.80286 36.5373 10.2166 36.4517C12.578 36.3577 13.4601 34.9983 16.3098 34.9983C19.1333 34.9983 19.9616 36.4517 22.4233 36.397C24.9577 36.3577 26.5533 34.2084 28.0762 32.01C29.9 29.5128 30.6324 27.0534 30.6614 26.9272C30.6019 26.9075 25.7395 25.116 25.6916 19.6964Z" fill="white"/>
<path d="M21.0414 6.39934C22.3114 4.86593 23.1805 2.77976 22.9392 0.66272C21.1009 0.741284 18.802 1.89029 17.4782 3.39004C16.3069 4.71161 15.2606 6.87775 15.5309 8.91482C17.5959 9.06353 19.7161 7.90891 21.0414 6.39934Z" fill="white"/>
</svg>
