<svg width="34" height="37" viewBox="0 0 34 37" fill="none" xmlns="http://www.w3.org/2000/svg">
<path d="M1.14986 0.742961C0.723376 1.18115 0.476562 1.86337 0.476562 2.74687V34.2607C0.476562 35.1442 0.723376 35.8265 1.14986 36.2647L1.25512 36.3608L19.2472 18.7087V18.2918L1.25512 0.639651L1.14986 0.742961Z" fill="url(#paint0_linear_1_10)"/>
<path d="M25.238 24.5952L19.2473 18.7082V18.2914L25.2453 12.4043L25.3796 12.4809L32.4828 16.4478C34.5099 17.5735 34.5099 19.426 32.4828 20.5589L25.3796 24.5186L25.238 24.5952V24.5952Z" fill="url(#paint1_linear_1_10)"/>
<path d="M25.3797 24.5193L19.2475 18.5004L1.15015 36.2648C1.82344 36.9595 2.9214 37.0432 4.17 36.3485L25.3797 24.5193" fill="url(#paint2_linear_1_10)"/>
<path d="M25.3797 12.4812L4.17 0.651879C2.9214 -0.0356837 1.82344 0.0480327 1.15015 0.74272L19.2475 18.5L25.3797 12.4812Z" fill="url(#paint3_linear_1_10)"/>
<defs>
<linearGradient id="paint0_linear_1_10" x1="17.6497" y1="34.5889" x2="-6.26104" y2="10.2276" gradientUnits="userSpaceOnUse">
<stop stop-color="#00A0FF"/>
<stop offset="0.0066" stop-color="#00A1FF"/>
<stop offset="0.2601" stop-color="#00BEFF"/>
<stop offset="0.5122" stop-color="#00D2FF"/>
<stop offset="0.7604" stop-color="#00DFFF"/>
<stop offset="1" stop-color="#00E3FF"/>
</linearGradient>
<linearGradient id="paint1_linear_1_10" x1="35.1224" y1="18.4978" x2="-0.00786755" y2="18.4978" gradientUnits="userSpaceOnUse">
<stop stop-color="#FFE000"/>
<stop offset="0.4087" stop-color="#FFBD00"/>
<stop offset="0.7754" stop-color="#FFA500"/>
<stop offset="1" stop-color="#FF9C00"/>
</linearGradient>
<linearGradient id="paint2_linear_1_10" x1="22.0452" y1="15.2285" x2="-10.3797" y2="-17.8074" gradientUnits="userSpaceOnUse">
<stop stop-color="#FF3A44"/>
<stop offset="1" stop-color="#C31162"/>
</linearGradient>
<linearGradient id="paint3_linear_1_10" x1="-3.40533" y1="46.7489" x2="11.0739" y2="31.997" gradientUnits="userSpaceOnUse">
<stop stop-color="#32A071"/>
<stop offset="0.0685" stop-color="#2DA771"/>
<stop offset="0.4762" stop-color="#15CF74"/>
<stop offset="0.8009" stop-color="#06E775"/>
<stop offset="1" stop-color="#00F076"/>
</linearGradient>
</defs>
</svg>
